<svg xmlns="http://www.w3.org/2000/svg" viewBox="0 0 639.04 161.97" width="160px" height="40px"><defs><style>.cls-1{fill:#333;}.cls-2{fill:#007a40;}</style></defs><g id="レイヤー_2" data-name="レイヤー 2"><g id="レイヤー_4" data-name="レイヤー 4"><path class="cls-1" d="M270.37,34.08l-.12,64.63a2.11,2.11,0,0,1-4,1L243.23,44a17.72,17.72,0,0,0-15.85-9.72l-23.24.05a17.81,17.81,0,0,0-17.77,17.84l.16,76.65,33.71-.07-.13-64.44a2.11,2.11,0,0,1,4-1l23,55.65a17.75,17.75,0,0,0,10.1,8.63c2.95,1,31.94.91,34.75-.06a17.58,17.58,0,0,0,12-16.54l.21-77Z"/><path class="cls-1" d="M438.75,74.69l38.72-41-37.06.08-30.54,35.6-.07-35.54-33.71.07.19,94.51L410,128.3l-.07-36L441,128.24l37.06-.08L438.77,86.83A9.36,9.36,0,0,1,438.75,74.69Z"/><path class="cls-1" d="M552.79,74.46l38.72-41-37.06.07L523.91,69.1l-.08-35.54-33.71.07.2,94.51,33.71-.07-.07-36L555,128l37.07-.07L552.81,86.6A9.35,9.35,0,0,1,552.79,74.46Z"/><polygon class="cls-1" points="350.67 33.84 350.67 33.79 344.86 33.86 344.86 33.8 339.05 33.87 339.05 33.81 333.24 33.88 333.23 33.82 322.76 33.95 323.9 128.46 329.71 128.39 329.71 128.45 335.52 128.38 335.52 128.44 341.33 128.37 341.33 128.43 347.14 128.36 347.14 128.42 357.61 128.29 356.48 33.77 350.67 33.84"/><polygon class="cls-1" points="639.04 127.71 637.9 33.19 632.09 33.26 632.09 33.21 626.28 33.28 626.28 33.22 620.47 33.29 620.47 33.23 614.66 33.3 614.66 33.24 604.19 33.37 605.32 127.88 611.13 127.81 611.13 127.87 616.94 127.8 616.94 127.86 622.75 127.79 622.75 127.85 628.56 127.78 628.57 127.84 639.04 127.71"/><path class="cls-2" d="M157.67,70.56,139.49,52.38l-13.8,19.68-.5,31.78a6,6,0,0,1-1.75,4.13,6.08,6.08,0,0,1-1.84,1.26,6,6,0,0,1-6.39-1.06L61.56,59.48,62,105.77l-11.94.12-.61-59.95a6,6,0,0,1,10-4.48l54,49,.3-19.16L99.7,52.22l-.49-40.11L91.41,4.3a14.79,14.79,0,0,0-20.85,0L4.3,70.56a14.79,14.79,0,0,0,0,20.85l7.85,7.85,3.36-3.36A7.27,7.27,0,1,1,19.62,100l-3.35,3.34,19.1,19.11,3.36-3.36a7.26,7.26,0,1,1,4.1,4.13l-3.34,3.34,19.1,19.11L62,142.34a7.28,7.28,0,1,1,4.1,4.12l-3.35,3.35,7.86,7.86a14.79,14.79,0,0,0,20.85,0l66.26-66.26A14.79,14.79,0,0,0,157.67,70.56Z"/><polygon class="cls-2" points="132.05 51.86 107.67 51.86 119.86 69.24 132.05 51.86"/></g></g></svg>