<svg version="1.2" baseProfile="tiny-ps" xmlns="http://www.w3.org/2000/svg" viewBox="0 0 32 32" width="32" height="32">
    <style>
        tspan { white-space:pre }
        .shp0 { fill: #ff8726 }
    </style>
    <g id="Layer 4">
        <path id="&lt;Compound Path&gt;" fill-rule="evenodd" class="shp0" d="M24.12 8.65C24.12 14.02 19.67 15.44 17.62 19.44C16.24 22.14 16.58 23.94 16 23.94C15.42 23.94 15.76 22.14 14.38 19.44C12.33 15.44 7.88 14.02 7.88 8.65C7.88 4.16 11.52 0.53 16 0.53C20.48 0.53 24.12 4.16 24.12 8.65ZM18.68 21.13C21.8 21.35 24.56 21.94 26.59 22.78L24.41 24.19L18.08 23.33C18.11 23.19 18.14 23.04 18.17 22.9C18.3 22.28 18.46 21.7 18.68 21.13ZM27.75 23.33C29.28 24.16 30.18 25.16 30.18 26.24C30.18 26.35 30.17 26.46 30.15 26.57L23.99 25.73L27.75 23.33ZM26.76 29.63L19.4 28.67L23.22 26.23L29.95 27.17C29.5 28.1 28.37 28.94 26.76 29.63ZM25.55 30.09C23.52 30.76 20.96 31.23 18.12 31.39L15.34 28.84L25.55 30.09ZM16 31.44C11.67 31.44 7.79 30.73 5.19 29.61L7.83 27.92L13.45 28.61L16.67 31.44C16.45 31.44 16.23 31.44 16 31.44ZM3.92 28.96C2.59 28.17 1.82 27.24 1.82 26.24C1.82 25.79 1.98 25.36 2.27 24.94L8.76 25.73L3.92 28.96ZM2.8 24.34C4.55 22.7 8.5 21.47 13.32 21.13C13.48 21.55 13.61 21.98 13.72 22.42L9.45 25.27L2.8 24.34ZM14.06 23.94C14.24 24.57 14.54 25.14 15.25 25.45C15.56 25.58 15.69 25.6 16 25.6C16.31 25.6 16.45 25.58 16.75 25.45C17.49 25.13 17.78 24.54 17.95 23.88L23.59 24.72L17.8 28.46L8.83 27.28L14.06 23.94ZM19.44 8.65C19.44 6.75 17.9 5.21 16 5.21C14.1 5.21 12.56 6.75 12.56 8.65C12.56 10.55 14.1 12.08 16 12.08C17.9 12.08 19.44 10.55 19.44 8.65Z" />
    </g>
</svg>