<svg xmlns="http://www.w3.org/2000/svg" viewBox="0 0 161.97 161.97" width="32px" height="32px"><defs><style>.cls-1{fill:#007a40;}</style></defs><g id="レイヤー_2" data-name="レイヤー 2"><g id="レイヤー_4" data-name="レイヤー 4"><path class="cls-1" d="M157.67,70.56,139.49,52.38l-13.8,19.68-.5,31.78a6,6,0,0,1-1.75,4.13,6.08,6.08,0,0,1-1.84,1.26,6,6,0,0,1-6.39-1.06L61.56,59.48,62,105.77l-11.94.12-.61-59.95a6,6,0,0,1,10-4.48l54,49,.3-19.16L99.7,52.22l-.49-40.11L91.41,4.3a14.79,14.79,0,0,0-20.85,0L4.3,70.56a14.79,14.79,0,0,0,0,20.85l7.85,7.85,3.36-3.36A7.27,7.27,0,1,1,19.62,100l-3.35,3.34,19.1,19.11,3.36-3.36a7.26,7.26,0,1,1,4.1,4.13l-3.34,3.34,19.1,19.11L62,142.34a7.28,7.28,0,1,1,4.1,4.12l-3.35,3.35,7.86,7.86a14.79,14.79,0,0,0,20.85,0l66.26-66.26A14.79,14.79,0,0,0,157.67,70.56Z"/><polygon class="cls-1" points="132.05 51.86 107.67 51.86 119.86 69.24 132.05 51.86"/></g></g></svg>